<svg width="122" height="62" viewBox="0 0 122 62" fill="none" xmlns="http://www.w3.org/2000/svg">
<g clip-path="url(#clip0_938_9035)">
<rect x="1" y="1" width="120" height="60" rx="12" fill="white"/>
<g clip-path="url(#clip1_938_9035)">
<path fill-rule="evenodd" clip-rule="evenodd" d="M76.9842 36.4418L84.5056 29.0638C84.5056 30.2715 85.0463 34.214 84.4866 34.7788C82.5845 37.3948 79.4925 37.3894 76.9842 36.4418ZM88.4751 31.5231C88.4751 30.5679 88.6004 30.1787 88.9612 29.4377C91.4283 24.3694 98.8173 26.6047 98.8173 31.3181C98.8173 34.1185 96.8958 36.5443 93.9073 36.5443C90.8049 36.5443 88.4751 34.6584 88.4751 31.5231ZM74.5816 33.7777C74.1851 32.9674 74.2683 31.8393 74.2683 30.9084C74.2683 28.8668 75.8485 27.2779 77.6108 26.5022C78.7877 25.9844 80.8715 25.7176 82.103 26.2972L74.5816 33.7778V33.7777ZM84.5056 23.6329C80.3371 21.4694 76.3431 22.3548 73.0793 25.4383C72.0584 26.5091 70.821 28.3199 70.821 29.8837L70.7165 24.145C70.7215 22.2427 71.1406 22.6081 67.1647 22.6081C66.5082 22.6081 66.7447 23.4885 66.7492 24.0377C66.7691 26.5908 66.8505 32.4893 66.7483 34.5985C66.614 37.3695 63.9149 37.2446 63.0414 36.0801C62.7295 35.6642 62.5685 34.972 62.5685 34.2899V22.7106H58.8078V34.6997C58.8078 35.3229 58.6297 35.814 58.315 36.1637C57.2557 37.3424 55.3912 36.9273 54.8957 35.6679C54.3762 34.3475 54.7275 26.0961 54.7333 24.0425C54.7392 22.2818 55.2158 22.6079 51.286 22.6079C51.0454 22.6079 50.9727 22.6792 50.9727 22.9154V35.3144C50.9727 36.864 51.7159 37.9605 52.7056 38.943C53.4964 39.7278 55.0661 40.5405 56.1959 40.5405C58.2965 40.5405 59.0908 40.3649 60.6877 39.0034L62.1833 39.9957C64.6609 41.2029 67.7 40.4298 69.3457 38.2737C69.7214 37.7819 70.2228 36.8118 70.4181 36.149C70.7256 35.1077 70.7161 34.5216 70.7161 33.1624H70.821C70.821 33.8916 71.3088 35.0678 71.6108 35.5643C72.8356 37.5795 74.5536 39.3964 76.9602 40.0513C79.6788 40.791 82.462 40.6439 84.8831 39.0665C85.6142 38.5903 86.4329 37.7436 86.6992 37.5687C87.3702 38.0095 87.6256 38.6939 89.3798 39.5503C92.8715 41.2549 96.686 40.7976 99.684 38.3168C108.017 31.421 99.3019 18.4226 88.4751 24.0425V17.4843L84.61 17.2793C84.3184 18.5071 84.5056 22.05 84.5056 23.6326V23.6329Z" fill="#202B8F"/>
<path fill-rule="evenodd" clip-rule="evenodd" d="M21.8283 32.3424C21.8283 35.4671 24.3996 38.4312 27.0496 39.7222C29.3376 40.8369 32.6699 40.7881 34.9234 39.6542C37.8948 38.1591 40.1095 35.3308 40.1095 31.9324V22.9149C40.1095 22.6787 40.0369 22.6074 39.7961 22.6074C35.8056 22.6074 36.1162 22.3356 36.1337 23.4212C36.1599 25.0422 36.215 31.0464 36.1136 31.8043C35.7481 34.5414 34.0221 36.4353 31.2665 36.5687C30.1155 36.6244 28.4336 36.1713 27.7011 35.4963C25.2324 33.2204 25.9023 31.7321 25.9023 27.731C25.9023 26.1256 25.9023 24.5201 25.9023 22.9147C25.6759 22.766 25.5545 22.6072 25.1711 22.6072H21.8281V32.3422L21.8283 32.3424Z" fill="#202B8F"/>
<path fill-rule="evenodd" clip-rule="evenodd" d="M40.8403 20.5589V40.2334C40.8403 40.5191 41.2395 40.4384 41.6758 40.4384H44.9138V17.4846L40.8398 20.5587L40.8403 20.5589Z" fill="#202B8F"/>
<path fill-rule="evenodd" clip-rule="evenodd" d="M46.27 20.7638V40.1311C46.2347 40.7909 48.3294 40.4087 49.4095 40.4363C50.5606 40.4658 50.3264 40.8347 50.3435 38.0817V17.3823L46.2695 20.7638H46.27Z" fill="#202B8F"/>
</g>
</g>
<rect x="1" y="1" width="120" height="60" rx="12" stroke="#E9E9E9" stroke-width="0.943396"/>
<defs>
<clipPath id="clip0_938_9035">
<rect x="1" y="1" width="120" height="60" rx="12" fill="white"/>
</clipPath>
<clipPath id="clip1_938_9035">
<rect width="107.603" height="32.375" fill="white" transform="translate(-4.60156 17)"/>
</clipPath>
</defs>
</svg>
