<svg width="85" height="72" viewBox="0 0 85 72" fill="none" xmlns="http://www.w3.org/2000/svg">
<g clip-path="url(#clip0_4595_114)">
<path fill-rule="evenodd" clip-rule="evenodd" d="M42.2717 0C31.5217 0 22.7773 8.97106 22.7773 19.9998C22.7773 24.3737 24.1526 28.43 26.4905 31.7225L24.0608 39.1532L31.556 36.6963C34.6387 38.7892 38.3176 40 42.283 40C53.033 40 61.7773 31.0286 61.7773 20.0002C61.7773 8.97142 53.033 0.000330607 42.283 0.000330607L42.2717 0ZM36.8278 10.159C36.4497 9.23023 36.1631 9.19506 35.5903 9.17117C35.3952 9.15955 35.1779 9.14795 34.9369 9.14795C34.1917 9.14795 33.4125 9.37127 32.9426 9.86504C32.3697 10.4647 30.9485 11.8636 30.9485 14.7327C30.9485 17.6017 32.9885 20.3764 33.2634 20.7647C33.55 21.1523 37.2405 27.1253 42.9706 29.5596C47.4516 31.4643 48.7813 31.2878 49.8012 31.0644C51.2909 30.7353 53.1592 29.606 53.6291 28.2425C54.0991 26.8784 54.0991 25.7143 53.9613 25.4674C53.8238 25.2205 53.4454 25.0798 52.8726 24.7855C52.2998 24.4915 49.5146 23.0806 48.9874 22.8924C48.4715 22.6926 47.9789 22.7633 47.5894 23.3278C47.0393 24.1155 46.5007 24.9153 46.0651 25.3971C45.7212 25.7734 45.1594 25.8205 44.6898 25.6204C44.0594 25.3503 42.2947 24.7148 40.1169 22.7278C38.4321 21.1878 37.2861 19.2715 36.9539 18.6954C36.6214 18.1077 36.9196 17.7663 37.1829 17.449C37.4695 17.0844 37.7444 16.8259 38.031 16.4847C38.3176 16.1439 38.478 15.9674 38.6614 15.5676C38.8564 15.1796 38.7186 14.7798 38.5812 14.4858C38.4437 14.1918 37.2977 11.3228 36.8278 10.159Z" fill="#0DCF7D"/>
</g>
<path d="M5.62534 65.112C4.75734 65.112 3.96401 64.9347 3.24534 64.58C2.53601 64.216 1.95268 63.6467 1.49534 62.872C1.03801 62.0973 0.809344 61.1733 0.809344 60.1C0.809344 58.5133 1.27601 57.2813 2.20934 56.404C3.14268 55.5267 4.28134 55.088 5.62534 55.088C6.75468 55.088 7.70201 55.3773 8.46734 55.956C9.23268 56.5253 9.70401 57.3 9.88134 58.28L8.25734 58.63C8.11734 57.9767 7.81401 57.4633 7.34734 57.09C6.88068 56.7073 6.30668 56.516 5.62534 56.516C4.70134 56.516 3.94534 56.8333 3.35734 57.468C2.76934 58.0933 2.47534 58.9707 2.47534 60.1C2.47534 61.2293 2.76468 62.1067 3.34334 62.732C3.93134 63.3573 4.69201 63.67 5.62534 63.67C6.30668 63.67 6.87134 63.4973 7.31934 63.152C7.76734 62.8067 8.07068 62.3213 8.22934 61.696L9.86734 62.046C9.62468 62.998 9.13001 63.7493 8.38334 64.3C7.63668 64.8413 6.71734 65.112 5.62534 65.112ZM11.2905 65V55.088H12.8165V59.162C13.3112 58.2753 14.0812 57.832 15.1265 57.832C15.9292 57.832 16.5685 58.0653 17.0445 58.532C17.5299 58.9893 17.7725 59.6007 17.7725 60.366V65H16.2465V60.716C16.2465 60.2493 16.1065 59.8807 15.8265 59.61C15.5559 59.3393 15.1825 59.204 14.7065 59.204C14.1185 59.204 13.6565 59.4467 13.3205 59.932C12.9845 60.4173 12.8165 61.0893 12.8165 61.948V65H11.2905ZM22.25 57.832C23.1647 57.832 23.8973 58.0793 24.448 58.574C24.9987 59.0593 25.274 59.736 25.274 60.604V65H23.776V63.922C23.5707 64.2767 23.2673 64.566 22.866 64.79C22.4647 65.0047 22.0307 65.112 21.564 65.112C20.864 65.112 20.2947 64.916 19.856 64.524C19.4173 64.132 19.198 63.6327 19.198 63.026C19.198 61.682 20.2807 60.898 22.446 60.674L23.776 60.534V60.436C23.776 60.0067 23.636 59.666 23.356 59.414C23.0853 59.162 22.7167 59.036 22.25 59.036C21.8207 59.036 21.466 59.1573 21.186 59.4C20.906 59.6333 20.7427 59.96 20.696 60.38L19.324 60.128C19.436 59.4373 19.7627 58.882 20.304 58.462C20.8453 58.042 21.494 57.832 22.25 57.832ZM21.872 63.936C22.46 63.936 22.922 63.754 23.258 63.39C23.594 63.026 23.7667 62.55 23.776 61.962V61.668L22.432 61.822C21.2747 61.9527 20.696 62.34 20.696 62.984C20.696 63.264 20.8033 63.4927 21.018 63.67C21.2327 63.8473 21.5173 63.936 21.872 63.936ZM30.9762 64.944C30.6402 65.056 30.2668 65.112 29.8562 65.112C29.1562 65.112 28.5915 64.916 28.1622 64.524C27.7422 64.132 27.5322 63.5487 27.5322 62.774V59.246H26.3002V57.944H27.5322V55.844H29.0582V57.944H30.8782V59.246H29.0582V62.69C29.0582 63.0353 29.1422 63.3013 29.3102 63.488C29.4875 63.6653 29.7255 63.754 30.0242 63.754C30.3602 63.754 30.6448 63.698 30.8782 63.586L30.9762 64.944ZM37.2505 65L35.0665 57.944H36.6205L37.9505 62.872L39.4765 57.944H40.8905L42.4025 62.872L43.7325 57.944H45.2865L43.1165 65H41.7025L40.1765 60.086L38.6505 65H37.2505ZM47.279 56.768C46.999 56.768 46.7656 56.6747 46.579 56.488C46.3923 56.292 46.299 56.0587 46.299 55.788C46.299 55.508 46.3923 55.2747 46.579 55.088C46.7656 54.892 46.999 54.794 47.279 54.794C47.5683 54.794 47.8063 54.892 47.993 55.088C48.189 55.2747 48.287 55.508 48.287 55.788C48.287 56.0587 48.189 56.292 47.993 56.488C47.8063 56.6747 47.5683 56.768 47.279 56.768ZM46.523 65V57.944H48.049V65H46.523ZM53.8629 64.944C53.5269 65.056 53.1536 65.112 52.7429 65.112C52.0429 65.112 51.4782 64.916 51.0489 64.524C50.6289 64.132 50.4189 63.5487 50.4189 62.774V59.246H49.1869V57.944H50.4189V55.844H51.9449V57.944H53.7649V59.246H51.9449V62.69C51.9449 63.0353 52.0289 63.3013 52.1969 63.488C52.3742 63.6653 52.6122 63.754 52.9109 63.754C53.2469 63.754 53.5316 63.698 53.7649 63.586L53.8629 64.944ZM55.396 65V55.088H56.922V59.162C57.4167 58.2753 58.1867 57.832 59.232 57.832C60.0347 57.832 60.674 58.0653 61.15 58.532C61.6353 58.9893 61.878 59.6007 61.878 60.366V65H60.352V60.716C60.352 60.2493 60.212 59.8807 59.932 59.61C59.6613 59.3393 59.288 59.204 58.812 59.204C58.224 59.204 57.762 59.4467 57.426 59.932C57.09 60.4173 56.922 61.0893 56.922 61.948V65H55.396ZM70.9088 65.112C69.7514 65.112 68.8274 64.7993 68.1368 64.174C67.4461 63.5393 67.1008 62.6527 67.1008 61.514V55.2H68.6548V61.542C68.6548 62.214 68.8601 62.7367 69.2708 63.11C69.6814 63.4833 70.2274 63.67 70.9088 63.67C71.5901 63.67 72.1314 63.4833 72.5328 63.11C72.9434 62.7367 73.1488 62.214 73.1488 61.542V55.2H74.7028V61.514C74.7028 62.6527 74.3574 63.5393 73.6668 64.174C72.9761 64.7993 72.0568 65.112 70.9088 65.112ZM79.7667 65.112C78.8147 65.112 77.9841 64.8273 77.2747 64.258C76.5747 63.6887 76.1547 62.956 76.0147 62.06L77.5127 61.598C77.5967 62.2233 77.8534 62.7273 78.2827 63.11C78.7121 63.4927 79.2254 63.684 79.8227 63.684C80.4014 63.684 80.8634 63.558 81.2087 63.306C81.5634 63.054 81.7407 62.718 81.7407 62.298C81.7407 61.9433 81.6054 61.6447 81.3347 61.402C81.0734 61.1593 80.7421 60.982 80.3407 60.87C79.9487 60.7487 79.5194 60.6133 79.0527 60.464C78.5954 60.3053 78.1661 60.1373 77.7647 59.96C77.3727 59.7827 77.0414 59.5027 76.7707 59.12C76.5094 58.7373 76.3787 58.2707 76.3787 57.72C76.3787 56.9453 76.6961 56.3153 77.3307 55.83C77.9654 55.3353 78.7681 55.088 79.7387 55.088C80.6627 55.088 81.4514 55.312 82.1047 55.76C82.7581 56.208 83.1547 56.8007 83.2947 57.538L81.8247 58.14C81.7221 57.636 81.4841 57.2393 81.1107 56.95C80.7467 56.6607 80.2894 56.516 79.7387 56.516C79.2067 56.516 78.7867 56.6233 78.4787 56.838C78.1801 57.0527 78.0307 57.3467 78.0307 57.72C78.0307 58.028 78.1614 58.28 78.4227 58.476C78.6934 58.672 79.0247 58.8167 79.4167 58.91C79.8181 58.994 80.2521 59.1107 80.7187 59.26C81.1854 59.4093 81.6147 59.582 82.0067 59.778C82.4081 59.9647 82.7394 60.2727 83.0007 60.702C83.2714 61.1313 83.4067 61.654 83.4067 62.27C83.4067 63.1287 83.0754 63.8193 82.4127 64.342C81.7501 64.8553 80.8681 65.112 79.7667 65.112Z" fill="white"/>
<defs>
<clipPath id="clip0_4595_114">
<rect x="22.7773" width="39" height="40" fill="white"/>
</clipPath>
</defs>
</svg>
