<svg width="168" height="264" viewBox="0 0 168 264" fill="none" xmlns="http://www.w3.org/2000/svg">
<rect x="0.5" y="0.5" width="167" height="77" rx="38" fill="url(#paint0_linear_715_8024)"/>
<path d="M50.329 35.724C48.3877 35.724 46.6983 35.1453 45.261 33.988C43.8423 32.812 43.0117 31.3373 42.769 29.564L46.157 28.528C46.3063 29.6853 46.7823 30.6373 47.585 31.384C48.4063 32.112 49.3677 32.476 50.469 32.476C51.4957 32.476 52.317 32.252 52.933 31.804C53.549 31.356 53.857 30.7587 53.857 30.012C53.857 29.3587 53.5957 28.8173 53.073 28.388C52.569 27.94 51.9343 27.6133 51.169 27.408C50.4037 27.184 49.5637 26.9227 48.649 26.624C47.753 26.3067 46.9223 25.9707 46.157 25.616C45.3917 25.2427 44.7477 24.6733 44.225 23.908C43.721 23.124 43.469 22.172 43.469 21.052C43.469 19.5027 44.113 18.224 45.401 17.216C46.7077 16.1893 48.3317 15.676 50.273 15.676C52.1397 15.676 53.745 16.1333 55.089 17.048C56.433 17.9627 57.2544 19.1573 57.553 20.632L54.137 22.032C53.9317 21.08 53.4837 20.324 52.793 19.764C52.121 19.204 51.281 18.924 50.273 18.924C49.3397 18.924 48.6023 19.12 48.061 19.512C47.5197 19.8853 47.249 20.3987 47.249 21.052C47.249 21.5187 47.4357 21.9107 47.809 22.228C48.201 22.5453 48.705 22.7973 49.321 22.984C49.937 23.1707 50.6183 23.3573 51.365 23.544C52.1117 23.712 52.8583 23.9453 53.605 24.244C54.3517 24.524 55.033 24.8787 55.649 25.308C56.265 25.7373 56.7597 26.344 57.133 27.128C57.525 27.912 57.721 28.8453 57.721 29.928C57.721 31.664 57.0397 33.064 55.677 34.128C54.333 35.192 52.5503 35.724 50.329 35.724ZM60.432 35.5V15.9H64.24V35.5H60.432ZM67.9522 35.5V15.9H75.8482C77.8268 15.9 79.4042 16.4413 80.5802 17.524C81.7748 18.6067 82.3722 20.0627 82.3722 21.892C82.3722 23.7027 81.7748 25.1493 80.5802 26.232C79.4042 27.3147 77.8268 27.856 75.8482 27.856H71.7602V35.5H67.9522ZM71.7602 24.58H75.5122C76.4642 24.58 77.2108 24.3467 77.7522 23.88C78.2935 23.3947 78.5642 22.732 78.5642 21.892C78.5642 21.0333 78.2935 20.3707 77.7522 19.904C77.2108 19.4187 76.4642 19.176 75.5122 19.176H71.7602V24.58ZM94.8825 35.5V20.1C93.5385 21.164 92.0358 21.8547 90.3745 22.172V18.784C92.2785 18.336 93.9865 17.3747 95.4985 15.9H98.4105V35.5H94.8825ZM104.148 35.724C103.532 35.724 103.009 35.5187 102.58 35.108C102.169 34.6973 101.964 34.184 101.964 33.568C101.964 32.952 102.169 32.4387 102.58 32.028C103.009 31.6173 103.532 31.412 104.148 31.412C104.783 31.412 105.305 31.6173 105.716 32.028C106.127 32.4387 106.332 32.952 106.332 33.568C106.332 34.184 106.127 34.6973 105.716 35.108C105.305 35.5187 104.783 35.724 104.148 35.724ZM122.832 33.008C121.414 34.8187 119.472 35.724 117.008 35.724C114.544 35.724 112.603 34.8187 111.184 33.008C109.766 31.1973 109.056 28.7613 109.056 25.7C109.056 22.6387 109.766 20.2027 111.184 18.392C112.603 16.5813 114.544 15.676 117.008 15.676C119.472 15.676 121.414 16.5813 122.832 18.392C124.251 20.2027 124.96 22.6387 124.96 25.7C124.96 28.7613 124.251 31.1973 122.832 33.008ZM113.956 30.656C114.666 31.832 115.683 32.42 117.008 32.42C118.334 32.42 119.351 31.832 120.06 30.656C120.788 29.48 121.152 27.828 121.152 25.7C121.152 23.572 120.788 21.92 120.06 20.744C119.351 19.5493 118.334 18.952 117.008 18.952C115.683 18.952 114.666 19.5493 113.956 20.744C113.247 21.92 112.892 23.572 112.892 25.7C112.892 27.828 113.247 29.48 113.956 30.656Z" fill="white"/>
<path d="M44.0675 61.5L44.0535 60.394L47.7355 57.216C48.8275 56.2733 49.3735 55.3773 49.3735 54.528C49.3735 53.9773 49.2008 53.5387 48.8555 53.212C48.5195 52.8853 48.0668 52.722 47.4975 52.722C46.8161 52.722 46.2935 52.946 45.9295 53.394C45.5655 53.8327 45.4208 54.416 45.4955 55.144L44.2635 55.06C44.1888 54.0333 44.4501 53.198 45.0475 52.554C45.6541 51.91 46.4708 51.588 47.4975 51.588C48.4588 51.588 49.2288 51.8587 49.8075 52.4C50.3955 52.932 50.6895 53.6413 50.6895 54.528C50.6895 55.1253 50.5168 55.7087 50.1715 56.278C49.8261 56.8473 49.2755 57.4493 48.5195 58.084L45.8595 60.352H50.6895V61.5H44.0675ZM55.8074 61.612C54.6034 61.612 53.6748 61.164 53.0214 60.268C52.3774 59.3627 52.0554 58.14 52.0554 56.6C52.0554 55.06 52.3774 53.842 53.0214 52.946C53.6748 52.0407 54.6034 51.588 55.8074 51.588C57.0021 51.588 57.9261 52.0407 58.5794 52.946C59.2328 53.8513 59.5594 55.0693 59.5594 56.6C59.5594 58.1307 59.2328 59.3487 58.5794 60.254C57.9261 61.1593 57.0021 61.612 55.8074 61.612ZM55.8074 60.464C56.5821 60.464 57.1794 60.1187 57.5994 59.428C58.0288 58.7373 58.2434 57.7947 58.2434 56.6C58.2434 55.4053 58.0288 54.4627 57.5994 53.772C57.1794 53.072 56.5821 52.722 55.8074 52.722C55.0141 52.722 54.4074 53.0673 53.9874 53.758C53.5674 54.4487 53.3574 55.396 53.3574 56.6C53.3574 57.7947 53.5674 58.7373 53.9874 59.428C54.4074 60.1187 55.0141 60.464 55.8074 60.464ZM60.5421 61.5L60.5281 60.394L64.2101 57.216C65.3021 56.2733 65.8481 55.3773 65.8481 54.528C65.8481 53.9773 65.6754 53.5387 65.3301 53.212C64.9941 52.8853 64.5414 52.722 63.9721 52.722C63.2907 52.722 62.7681 52.946 62.4041 53.394C62.0401 53.8327 61.8954 54.416 61.9701 55.144L60.7381 55.06C60.6634 54.0333 60.9247 53.198 61.5221 52.554C62.1287 51.91 62.9454 51.588 63.9721 51.588C64.9334 51.588 65.7034 51.8587 66.2821 52.4C66.8701 52.932 67.1641 53.6413 67.1641 54.528C67.1641 55.1253 66.9914 55.7087 66.6461 56.278C66.3007 56.8473 65.7501 57.4493 64.9941 58.084L62.3341 60.352H67.1641V61.5H60.5421ZM72.6914 61.5V59.106H67.5254V57.958L72.4954 51.7H73.9654V57.958H75.3794V59.106H73.9654V61.5H72.6914ZM68.8974 57.958H72.6914V53.156L68.8974 57.958ZM84.5147 61.612C83.1893 61.612 82.0647 61.178 81.1407 60.31C80.2167 59.4327 79.7547 58.196 79.7547 56.6C79.7547 55.004 80.2167 53.772 81.1407 52.904C82.074 52.0267 83.1987 51.588 84.5147 51.588C85.5787 51.588 86.4793 51.868 87.2167 52.428C87.9633 52.9787 88.4393 53.73 88.6447 54.682L87.3847 54.962C87.226 54.2527 86.8947 53.702 86.3907 53.31C85.896 52.918 85.266 52.722 84.5007 52.722C83.474 52.722 82.6433 53.0627 82.0087 53.744C81.3833 54.4253 81.0707 55.3773 81.0707 56.6C81.0707 57.8227 81.3833 58.7747 82.0087 59.456C82.6433 60.128 83.474 60.464 84.5007 60.464C85.2567 60.464 85.8773 60.2773 86.3627 59.904C86.8573 59.5307 87.1933 59.0033 87.3707 58.322L88.6447 58.588C88.3927 59.5213 87.9027 60.2587 87.1747 60.8C86.4467 61.3413 85.56 61.612 84.5147 61.612ZM95.8948 60.59C95.2228 61.2713 94.3641 61.612 93.3188 61.612C92.2735 61.612 91.4148 61.2713 90.7428 60.59C90.0708 59.8993 89.7348 59.0267 89.7348 57.972C89.7348 56.9173 90.0708 56.0493 90.7428 55.368C91.4148 54.6773 92.2735 54.332 93.3188 54.332C94.3641 54.332 95.2228 54.6773 95.8948 55.368C96.5761 56.0493 96.9168 56.9173 96.9168 57.972C96.9168 59.0267 96.5761 59.8993 95.8948 60.59ZM91.6108 59.834C92.0495 60.31 92.6188 60.548 93.3188 60.548C94.0188 60.548 94.5881 60.31 95.0268 59.834C95.4655 59.3487 95.6848 58.728 95.6848 57.972C95.6848 57.216 95.4655 56.6 95.0268 56.124C94.5881 55.6387 94.0188 55.396 93.3188 55.396C92.6188 55.396 92.0495 55.6387 91.6108 56.124C91.1721 56.6 90.9528 57.216 90.9528 57.972C90.9528 58.728 91.1721 59.3487 91.6108 59.834ZM98.4396 61.5V51.588H99.6296V55.83C100.143 54.8313 100.946 54.332 102.038 54.332C102.84 54.332 103.48 54.5607 103.956 55.018C104.441 55.4753 104.684 56.0867 104.684 56.852V61.5H103.494V57.076C103.494 56.5533 103.34 56.1473 103.032 55.858C102.733 55.5593 102.313 55.41 101.772 55.41C101.118 55.41 100.596 55.6853 100.204 56.236C99.821 56.7867 99.6296 57.5333 99.6296 58.476V61.5H98.4396ZM112.369 60.59C111.697 61.2713 110.839 61.612 109.793 61.612C108.748 61.612 107.889 61.2713 107.217 60.59C106.545 59.8993 106.209 59.0267 106.209 57.972C106.209 56.9173 106.545 56.0493 107.217 55.368C107.889 54.6773 108.748 54.332 109.793 54.332C110.839 54.332 111.697 54.6773 112.369 55.368C113.051 56.0493 113.391 56.9173 113.391 57.972C113.391 59.0267 113.051 59.8993 112.369 60.59ZM108.085 59.834C108.524 60.31 109.093 60.548 109.793 60.548C110.493 60.548 111.063 60.31 111.501 59.834C111.94 59.3487 112.159 58.728 112.159 57.972C112.159 57.216 111.94 56.6 111.501 56.124C111.063 55.6387 110.493 55.396 109.793 55.396C109.093 55.396 108.524 55.6387 108.085 56.124C107.647 56.6 107.427 57.216 107.427 57.972C107.427 58.728 107.647 59.3487 108.085 59.834ZM118.498 55.522C118.368 55.4847 118.209 55.466 118.022 55.466C117.444 55.466 116.977 55.7507 116.622 56.32C116.277 56.88 116.104 57.7107 116.104 58.812V61.5H114.914V54.444H116.104V55.872C116.291 55.424 116.576 55.0553 116.958 54.766C117.341 54.4767 117.747 54.332 118.176 54.332L118.568 54.36L118.498 55.522ZM123.93 61.444C123.622 61.556 123.253 61.612 122.824 61.612C122.189 61.612 121.681 61.43 121.298 61.066C120.925 60.6927 120.738 60.1327 120.738 59.386V55.494H119.422V54.444H120.738V52.302H121.928V54.444H123.818V55.494H121.928V59.428C121.928 59.792 122.021 60.0673 122.208 60.254C122.395 60.4407 122.647 60.534 122.964 60.534C123.309 60.534 123.603 60.4733 123.846 60.352L123.93 61.444Z" fill="white"/>
<rect x="0.5" y="93.5" width="167" height="77" rx="38" fill="url(#paint1_linear_715_8024)"/>
<path d="M68.9616 128.5V124.412H59.0776V121.108L68.6536 108.9H72.7696V121.108H75.2616V124.412H72.7696V128.5H68.9616ZM62.9976 121.108H68.9616V113.436L62.9976 121.108ZM90.8537 126.008C89.435 127.819 87.4937 128.724 85.0297 128.724C82.5657 128.724 80.6243 127.819 79.2057 126.008C77.787 124.197 77.0777 121.761 77.0777 118.7C77.0777 115.639 77.787 113.203 79.2057 111.392C80.6243 109.581 82.5657 108.676 85.0297 108.676C87.4937 108.676 89.435 109.581 90.8537 111.392C92.2723 113.203 92.9817 115.639 92.9817 118.7C92.9817 121.761 92.2723 124.197 90.8537 126.008ZM81.9777 123.656C82.687 124.832 83.7043 125.42 85.0297 125.42C86.355 125.42 87.3723 124.832 88.0817 123.656C88.8097 122.48 89.1737 120.828 89.1737 118.7C89.1737 116.572 88.8097 114.92 88.0817 113.744C87.3723 112.549 86.355 111.952 85.0297 111.952C83.7043 111.952 82.687 112.549 81.9777 113.744C81.2683 114.92 80.9137 116.572 80.9137 118.7C80.9137 120.828 81.2683 122.48 81.9777 123.656ZM108.68 117.888V120.912H103.276V126.288H100.28V120.912H94.8765V117.888H100.252V112.512H103.276V117.888H108.68Z" fill="white"/>
<path d="M36.1592 154.5V145.834H33.0372V144.7H40.5412V145.834H37.4332V154.5H36.1592ZM46.218 153.59C45.546 154.271 44.6874 154.612 43.642 154.612C42.5967 154.612 41.738 154.271 41.066 153.59C40.394 152.899 40.058 152.027 40.058 150.972C40.058 149.917 40.394 149.049 41.066 148.368C41.738 147.677 42.5967 147.332 43.642 147.332C44.6874 147.332 45.546 147.677 46.218 148.368C46.8994 149.049 47.24 149.917 47.24 150.972C47.24 152.027 46.8994 152.899 46.218 153.59ZM41.934 152.834C42.3727 153.31 42.942 153.548 43.642 153.548C44.342 153.548 44.9114 153.31 45.35 152.834C45.7887 152.349 46.008 151.728 46.008 150.972C46.008 150.216 45.7887 149.6 45.35 149.124C44.9114 148.639 44.342 148.396 43.642 148.396C42.942 148.396 42.3727 148.639 41.934 149.124C41.4954 149.6 41.276 150.216 41.276 150.972C41.276 151.728 41.4954 152.349 41.934 152.834ZM52.1958 154.5V144.7H55.7378C56.6712 144.7 57.4038 144.924 57.9358 145.372C58.4678 145.811 58.7338 146.427 58.7338 147.22C58.7338 147.649 58.6078 148.041 58.3558 148.396C58.1038 148.741 57.8005 148.989 57.4458 149.138C58.5938 149.539 59.1678 150.375 59.1678 151.644C59.1678 152.531 58.8832 153.231 58.3138 153.744C57.7445 154.248 56.9558 154.5 55.9478 154.5H52.1958ZM53.4558 148.732H55.6818C56.8765 148.732 57.4738 148.242 57.4738 147.262C57.4738 146.282 56.8765 145.792 55.6818 145.792H53.4558V148.732ZM53.4558 153.352H55.7378C57.1752 153.352 57.8938 152.773 57.8938 151.616C57.8938 150.44 57.1752 149.852 55.7378 149.852H53.4558V153.352ZM67.0961 150.65C67.0961 150.846 67.0868 151.028 67.0681 151.196H61.4961C61.5334 151.905 61.7574 152.479 62.1681 152.918C62.5881 153.347 63.1154 153.562 63.7501 153.562C64.2914 153.562 64.7394 153.441 65.0941 153.198C65.4488 152.955 65.6774 152.615 65.7801 152.176L66.9001 152.442C66.7228 153.123 66.3541 153.655 65.7941 154.038C65.2434 154.421 64.5621 154.612 63.7501 154.612C62.7141 154.612 61.8788 154.262 61.2441 153.562C60.6188 152.862 60.3061 151.999 60.3061 150.972C60.3061 149.936 60.6141 149.073 61.2301 148.382C61.8554 147.682 62.6861 147.332 63.7221 147.332C64.7394 147.332 65.5561 147.654 66.1721 148.298C66.7881 148.933 67.0961 149.717 67.0961 150.65ZM61.5661 150.202H65.8361C65.7801 149.642 65.5654 149.189 65.1921 148.844C64.8188 148.499 64.3288 148.326 63.7221 148.326C63.1714 148.326 62.7048 148.494 62.3221 148.83C61.9394 149.157 61.6874 149.614 61.5661 150.202ZM72.0611 154.5V144.7H73.3351V154.5H72.0611ZM75.3137 154.5V147.444H76.5037V148.774C76.7557 148.335 77.0917 147.985 77.5117 147.724C77.9317 147.463 78.403 147.332 78.9257 147.332C79.663 147.332 80.265 147.561 80.7317 148.018C81.2077 148.475 81.4457 149.077 81.4457 149.824V154.5H80.2557V150.048C80.2557 149.563 80.111 149.171 79.8217 148.872C79.5323 148.564 79.145 148.41 78.6597 148.41C77.997 148.41 77.4697 148.681 77.0777 149.222C76.695 149.754 76.5037 150.482 76.5037 151.406V154.5H75.3137ZM86.4741 154.612C85.4287 154.612 84.5841 154.281 83.9401 153.618C83.2961 152.946 82.9741 152.064 82.9741 150.972C82.9741 149.88 83.2961 149.003 83.9401 148.34C84.5841 147.668 85.4287 147.332 86.4741 147.332C87.2954 147.332 87.9814 147.542 88.5321 147.962C89.0921 148.373 89.4374 148.928 89.5681 149.628L88.3921 149.866C88.3174 149.437 88.1074 149.087 87.7621 148.816C87.4167 148.536 86.9967 148.396 86.5021 148.396C85.8114 148.396 85.2561 148.634 84.8361 149.11C84.4254 149.577 84.2201 150.197 84.2201 150.972C84.2201 151.747 84.4254 152.372 84.8361 152.848C85.2561 153.315 85.8114 153.548 86.5021 153.548C87.0061 153.548 87.4261 153.417 87.7621 153.156C88.1074 152.895 88.3267 152.531 88.4201 152.064L89.5821 152.302C89.4327 153.03 89.0781 153.599 88.5181 154.01C87.9674 154.411 87.2861 154.612 86.4741 154.612ZM97.1957 147.444V154.5H96.0057V153.17C95.7537 153.609 95.4177 153.959 94.9977 154.22C94.5777 154.481 94.1063 154.612 93.5837 154.612C92.8463 154.612 92.2397 154.383 91.7637 153.926C91.297 153.469 91.0637 152.867 91.0637 152.12V147.444H92.2537V151.896C92.2537 152.381 92.3983 152.778 92.6877 153.086C92.977 153.385 93.3643 153.534 93.8497 153.534C94.5123 153.534 95.035 153.268 95.4177 152.736C95.8097 152.195 96.0057 151.462 96.0057 150.538V147.444H97.1957ZM102.616 154.612C102.103 154.612 101.631 154.505 101.202 154.29C100.773 154.075 100.479 153.805 100.32 153.478V154.5H99.1301V144.588H100.32V148.452C100.544 148.116 100.866 147.845 101.286 147.64C101.715 147.435 102.163 147.332 102.63 147.332C103.694 147.332 104.525 147.673 105.122 148.354C105.719 149.026 106.018 149.899 106.018 150.972C106.018 152.045 105.715 152.923 105.108 153.604C104.511 154.276 103.68 154.612 102.616 154.612ZM100.838 152.848C101.258 153.315 101.813 153.548 102.504 153.548C103.195 153.548 103.75 153.315 104.17 152.848C104.59 152.372 104.8 151.747 104.8 150.972C104.8 150.197 104.59 149.577 104.17 149.11C103.75 148.634 103.195 148.396 102.504 148.396C101.813 148.396 101.258 148.634 100.838 149.11C100.427 149.577 100.222 150.197 100.222 150.972C100.222 151.747 100.427 152.372 100.838 152.848ZM110.102 147.332C110.97 147.332 111.67 147.57 112.202 148.046C112.734 148.522 113 149.166 113 149.978V154.5H111.824V153.296C111.619 153.697 111.301 154.019 110.872 154.262C110.452 154.495 109.985 154.612 109.472 154.612C108.772 154.612 108.198 154.421 107.75 154.038C107.311 153.646 107.092 153.142 107.092 152.526C107.092 151.201 108.212 150.426 110.452 150.202L111.824 150.048V149.908C111.824 149.423 111.665 149.04 111.348 148.76C111.04 148.471 110.625 148.326 110.102 148.326C109.617 148.326 109.215 148.461 108.898 148.732C108.581 149.003 108.399 149.376 108.352 149.852L107.246 149.642C107.349 148.942 107.661 148.382 108.184 147.962C108.716 147.542 109.355 147.332 110.102 147.332ZM109.654 153.632C110.335 153.632 110.867 153.422 111.25 153.002C111.633 152.582 111.824 152.017 111.824 151.308V150.972L110.452 151.126C109.005 151.285 108.282 151.747 108.282 152.512C108.282 152.839 108.408 153.109 108.66 153.324C108.921 153.529 109.253 153.632 109.654 153.632ZM118.646 154.444C118.338 154.556 117.969 154.612 117.54 154.612C116.905 154.612 116.396 154.43 116.014 154.066C115.64 153.693 115.454 153.133 115.454 152.386V148.494H114.138V147.444H115.454V145.302H116.644V147.444H118.534V148.494H116.644V152.428C116.644 152.792 116.737 153.067 116.924 153.254C117.11 153.441 117.362 153.534 117.68 153.534C118.025 153.534 118.319 153.473 118.562 153.352L118.646 154.444ZM126.241 150.65C126.241 150.846 126.231 151.028 126.213 151.196H120.641C120.678 151.905 120.902 152.479 121.313 152.918C121.733 153.347 122.26 153.562 122.895 153.562C123.436 153.562 123.884 153.441 124.239 153.198C124.593 152.955 124.822 152.615 124.925 152.176L126.045 152.442C125.867 153.123 125.499 153.655 124.939 154.038C124.388 154.421 123.707 154.612 122.895 154.612C121.859 154.612 121.023 154.262 120.389 153.562C119.763 152.862 119.451 151.999 119.451 150.972C119.451 149.936 119.759 149.073 120.375 148.382C121 147.682 121.831 147.332 122.867 147.332C123.884 147.332 124.701 147.654 125.317 148.298C125.933 148.933 126.241 149.717 126.241 150.65ZM120.711 150.202H124.981C124.925 149.642 124.71 149.189 124.337 148.844C123.963 148.499 123.473 148.326 122.867 148.326C122.316 148.326 121.849 148.494 121.467 148.83C121.084 149.157 120.832 149.614 120.711 150.202ZM130.769 154.612C129.705 154.612 128.869 154.276 128.263 153.604C127.665 152.923 127.367 152.045 127.367 150.972C127.367 149.899 127.665 149.026 128.263 148.354C128.86 147.673 129.691 147.332 130.755 147.332C131.221 147.332 131.665 147.435 132.085 147.64C132.514 147.845 132.841 148.116 133.065 148.452V144.588H134.255V154.5H133.065V153.478C132.906 153.805 132.612 154.075 132.183 154.29C131.753 154.505 131.282 154.612 130.769 154.612ZM129.215 152.848C129.635 153.315 130.19 153.548 130.881 153.548C131.571 153.548 132.127 153.315 132.547 152.848C132.967 152.372 133.177 151.747 133.177 150.972C133.177 150.197 132.967 149.577 132.547 149.11C132.127 148.634 131.571 148.396 130.881 148.396C130.19 148.396 129.635 148.634 129.215 149.11C128.795 149.577 128.585 150.197 128.585 150.972C128.585 151.747 128.795 152.372 129.215 152.848Z" fill="white"/>
<rect x="0.5" y="186.5" width="167" height="77" rx="38" fill="url(#paint2_linear_715_8024)"/>
<path d="M66.1839 215.928C66.1839 217.44 65.6612 218.7 64.6159 219.708C63.5892 220.716 62.1986 221.351 60.4439 221.612V224.468L57.3079 224.44V221.584C55.7026 221.304 54.3399 220.613 53.2199 219.512C52.0999 218.411 51.4372 217.095 51.2319 215.564L54.6199 214.528C54.7692 215.685 55.2452 216.637 56.0479 217.384C56.8692 218.112 57.8306 218.476 58.9319 218.476C59.9586 218.476 60.7799 218.252 61.3959 217.804C62.0119 217.356 62.3199 216.759 62.3199 216.012C62.3199 215.359 62.0586 214.817 61.5359 214.388C61.0319 213.94 60.3972 213.613 59.6319 213.408C58.8666 213.184 58.0266 212.923 57.1119 212.624C56.2159 212.307 55.3852 211.971 54.6199 211.616C53.8546 211.243 53.2106 210.673 52.6879 209.908C52.1839 209.124 51.9319 208.172 51.9319 207.052C51.9319 205.689 52.4266 204.532 53.4159 203.58C54.4239 202.628 55.7212 202.031 57.3079 201.788V199.1H60.4439V201.816C61.8999 202.077 63.1226 202.637 64.1119 203.496C65.1199 204.355 65.7546 205.4 66.0159 206.632L62.5999 208.032C62.3946 207.08 61.9466 206.324 61.2559 205.764C60.5839 205.204 59.7439 204.924 58.7359 204.924C57.8026 204.924 57.0652 205.12 56.5239 205.512C55.9826 205.885 55.7119 206.399 55.7119 207.052C55.7119 207.519 55.8986 207.911 56.2719 208.228C56.6639 208.545 57.1679 208.797 57.7839 208.984C58.3999 209.171 59.0812 209.357 59.8279 209.544C60.5746 209.712 61.3212 209.945 62.0679 210.244C62.8146 210.524 63.4959 210.879 64.1119 211.308C64.7279 211.737 65.2226 212.344 65.5959 213.128C65.9879 213.912 66.1839 214.845 66.1839 215.928ZM72.2829 221.5V206.1C70.9389 207.164 69.4362 207.855 67.7749 208.172V204.784C69.6789 204.336 71.3869 203.375 72.8989 201.9H75.8109V221.5H72.2829ZM79.5042 221.5V201.9H83.7883L89.7803 216.096L95.7723 201.9H100.056V221.5H96.4723V208.984L91.2083 221.5H88.3523L83.0883 208.984V221.5H79.5042ZM116.61 210.888V213.912H111.206V219.288H108.21V213.912H102.806V210.888H108.182V205.512H111.206V210.888H116.61Z" fill="white"/>
<path d="M41.6621 247.5V238.834H38.5401V237.7H46.0441V238.834H42.9361V247.5H41.6621ZM51.721 246.59C51.049 247.271 50.1903 247.612 49.145 247.612C48.0996 247.612 47.241 247.271 46.569 246.59C45.897 245.899 45.561 245.027 45.561 243.972C45.561 242.917 45.897 242.049 46.569 241.368C47.241 240.677 48.0996 240.332 49.145 240.332C50.1903 240.332 51.049 240.677 51.721 241.368C52.4023 242.049 52.743 242.917 52.743 243.972C52.743 245.027 52.4023 245.899 51.721 246.59ZM47.437 245.834C47.8756 246.31 48.445 246.548 49.145 246.548C49.845 246.548 50.4143 246.31 50.853 245.834C51.2916 245.349 51.511 244.728 51.511 243.972C51.511 243.216 51.2916 242.6 50.853 242.124C50.4143 241.639 49.845 241.396 49.145 241.396C48.445 241.396 47.8756 241.639 47.437 242.124C46.9983 242.6 46.779 243.216 46.779 243.972C46.779 244.728 46.9983 245.349 47.437 245.834ZM57.6988 247.5V237.7H61.2408C62.1741 237.7 62.9068 237.924 63.4388 238.372C63.9708 238.811 64.2368 239.427 64.2368 240.22C64.2368 240.649 64.1108 241.041 63.8588 241.396C63.6068 241.741 63.3034 241.989 62.9488 242.138C64.0968 242.539 64.6708 243.375 64.6708 244.644C64.6708 245.531 64.3861 246.231 63.8168 246.744C63.2474 247.248 62.4588 247.5 61.4508 247.5H57.6988ZM58.9588 241.732H61.1848C62.3794 241.732 62.9768 241.242 62.9768 240.262C62.9768 239.282 62.3794 238.792 61.1848 238.792H58.9588V241.732ZM58.9588 246.352H61.2408C62.6781 246.352 63.3968 245.773 63.3968 244.616C63.3968 243.44 62.6781 242.852 61.2408 242.852H58.9588V246.352ZM72.599 243.65C72.599 243.846 72.5897 244.028 72.571 244.196H66.999C67.0364 244.905 67.2604 245.479 67.671 245.918C68.091 246.347 68.6184 246.562 69.253 246.562C69.7944 246.562 70.2424 246.441 70.597 246.198C70.9517 245.955 71.1804 245.615 71.283 245.176L72.403 245.442C72.2257 246.123 71.857 246.655 71.297 247.038C70.7464 247.421 70.065 247.612 69.253 247.612C68.217 247.612 67.3817 247.262 66.747 246.562C66.1217 245.862 65.809 244.999 65.809 243.972C65.809 242.936 66.117 242.073 66.733 241.382C67.3584 240.682 68.189 240.332 69.225 240.332C70.2424 240.332 71.059 240.654 71.675 241.298C72.291 241.933 72.599 242.717 72.599 243.65ZM67.069 243.202H71.339C71.283 242.642 71.0684 242.189 70.695 241.844C70.3217 241.499 69.8317 241.326 69.225 241.326C68.6744 241.326 68.2077 241.494 67.825 241.83C67.4424 242.157 67.1904 242.614 67.069 243.202ZM77.564 247.5V237.7H78.838V247.5H77.564ZM80.8166 247.5V240.444H82.0066V241.774C82.2586 241.335 82.5946 240.985 83.0146 240.724C83.4346 240.463 83.9059 240.332 84.4286 240.332C85.1659 240.332 85.7679 240.561 86.2346 241.018C86.7106 241.475 86.9486 242.077 86.9486 242.824V247.5H85.7586V243.048C85.7586 242.563 85.6139 242.171 85.3246 241.872C85.0353 241.564 84.6479 241.41 84.1626 241.41C83.4999 241.41 82.9726 241.681 82.5806 242.222C82.1979 242.754 82.0066 243.482 82.0066 244.406V247.5H80.8166ZM90.4426 247.5L87.8666 240.444H89.0846L91.0446 246.114L93.0186 240.444H94.2506L91.6606 247.5H90.4426ZM101.556 243.65C101.556 243.846 101.547 244.028 101.528 244.196H95.9561C95.9934 244.905 96.2174 245.479 96.6281 245.918C97.0481 246.347 97.5754 246.562 98.2101 246.562C98.7514 246.562 99.1994 246.441 99.5541 246.198C99.9087 245.955 100.137 245.615 100.24 245.176L101.36 245.442C101.183 246.123 100.814 246.655 100.254 247.038C99.7034 247.421 99.0221 247.612 98.2101 247.612C97.1741 247.612 96.3387 247.262 95.7041 246.562C95.0787 245.862 94.7661 244.999 94.7661 243.972C94.7661 242.936 95.0741 242.073 95.6901 241.382C96.3154 240.682 97.1461 240.332 98.1821 240.332C99.1994 240.332 100.016 240.654 100.632 241.298C101.248 241.933 101.556 242.717 101.556 243.65ZM96.0261 243.202H100.296C100.24 242.642 100.025 242.189 99.6521 241.844C99.2787 241.499 98.7887 241.326 98.1821 241.326C97.6314 241.326 97.1647 241.494 96.7821 241.83C96.3994 242.157 96.1474 242.614 96.0261 243.202ZM105.386 247.612C104.602 247.612 103.958 247.411 103.454 247.01C102.959 246.609 102.623 246.123 102.446 245.554L103.468 245.106C103.785 246.105 104.424 246.604 105.386 246.604C105.806 246.604 106.146 246.501 106.408 246.296C106.678 246.081 106.814 245.825 106.814 245.526C106.814 245.199 106.674 244.943 106.394 244.756C106.114 244.569 105.773 244.429 105.372 244.336C104.98 244.243 104.583 244.14 104.182 244.028C103.79 243.907 103.454 243.697 103.174 243.398C102.894 243.099 102.754 242.703 102.754 242.208C102.754 241.648 102.978 241.195 103.426 240.85C103.874 240.505 104.476 240.332 105.232 240.332C105.857 240.332 106.412 240.495 106.898 240.822C107.383 241.139 107.7 241.555 107.85 242.068L106.856 242.502C106.762 242.147 106.557 241.863 106.24 241.648C105.932 241.424 105.586 241.312 105.204 241.312C104.802 241.312 104.485 241.391 104.252 241.55C104.018 241.699 103.902 241.914 103.902 242.194C103.902 242.427 104 242.619 104.196 242.768C104.401 242.917 104.653 243.025 104.952 243.09C105.26 243.146 105.591 243.23 105.946 243.342C106.3 243.445 106.627 243.561 106.926 243.692C107.224 243.823 107.472 244.047 107.668 244.364C107.873 244.672 107.976 245.055 107.976 245.512C107.976 246.128 107.738 246.632 107.262 247.024C106.786 247.416 106.16 247.612 105.386 247.612ZM113.143 247.444C112.835 247.556 112.466 247.612 112.037 247.612C111.402 247.612 110.893 247.43 110.511 247.066C110.137 246.693 109.951 246.133 109.951 245.386V241.494H108.635V240.444H109.951V238.302H111.141V240.444H113.031V241.494H111.141V245.428C111.141 245.792 111.234 246.067 111.421 246.254C111.607 246.441 111.859 246.534 112.177 246.534C112.522 246.534 112.816 246.473 113.059 246.352L113.143 247.444ZM120.738 243.65C120.738 243.846 120.728 244.028 120.71 244.196H115.138C115.175 244.905 115.399 245.479 115.81 245.918C116.23 246.347 116.757 246.562 117.392 246.562C117.933 246.562 118.381 246.441 118.736 246.198C119.09 245.955 119.319 245.615 119.422 245.176L120.542 245.442C120.364 246.123 119.996 246.655 119.436 247.038C118.885 247.421 118.204 247.612 117.392 247.612C116.356 247.612 115.52 247.262 114.886 246.562C114.26 245.862 113.948 244.999 113.948 243.972C113.948 242.936 114.256 242.073 114.872 241.382C115.497 240.682 116.328 240.332 117.364 240.332C118.381 240.332 119.198 240.654 119.814 241.298C120.43 241.933 120.738 242.717 120.738 243.65ZM115.208 243.202H119.478C119.422 242.642 119.207 242.189 118.834 241.844C118.46 241.499 117.97 241.326 117.364 241.326C116.813 241.326 116.346 241.494 115.964 241.83C115.581 242.157 115.329 242.614 115.208 243.202ZM125.266 247.612C124.202 247.612 123.366 247.276 122.76 246.604C122.162 245.923 121.864 245.045 121.864 243.972C121.864 242.899 122.162 242.026 122.76 241.354C123.357 240.673 124.188 240.332 125.252 240.332C125.718 240.332 126.162 240.435 126.582 240.64C127.011 240.845 127.338 241.116 127.562 241.452V237.588H128.752V247.5H127.562V246.478C127.403 246.805 127.109 247.075 126.68 247.29C126.25 247.505 125.779 247.612 125.266 247.612ZM123.712 245.848C124.132 246.315 124.687 246.548 125.378 246.548C126.068 246.548 126.624 246.315 127.044 245.848C127.464 245.372 127.674 244.747 127.674 243.972C127.674 243.197 127.464 242.577 127.044 242.11C126.624 241.634 126.068 241.396 125.378 241.396C124.687 241.396 124.132 241.634 123.712 242.11C123.292 242.577 123.082 243.197 123.082 243.972C123.082 244.747 123.292 245.372 123.712 245.848Z" fill="white"/>
<defs>
<linearGradient id="paint0_linear_715_8024" x1="-36.7229" y1="-27.5" x2="335.171" y2="78.6732" gradientUnits="userSpaceOnUse">
<stop stop-color="#212121"/>
<stop offset="1" stop-color="#A6A6A6" stop-opacity="0"/>
</linearGradient>
<linearGradient id="paint1_linear_715_8024" x1="-36.7229" y1="65.5" x2="335.171" y2="171.673" gradientUnits="userSpaceOnUse">
<stop stop-color="#212121"/>
<stop offset="1" stop-color="#A6A6A6" stop-opacity="0"/>
</linearGradient>
<linearGradient id="paint2_linear_715_8024" x1="-36.7229" y1="158.5" x2="335.171" y2="264.673" gradientUnits="userSpaceOnUse">
<stop stop-color="#212121"/>
<stop offset="1" stop-color="#A6A6A6" stop-opacity="0"/>
</linearGradient>
</defs>
</svg>
