<svg width="60" height="60" viewBox="0 0 60 60" fill="none" xmlns="http://www.w3.org/2000/svg">
<circle cx="30" cy="30" r="30" fill="#4E4E4E"/>
<path d="M19.7126 28.0712C19.7126 27.2187 20.0513 26.4012 20.6541 25.7984C21.2568 25.1956 22.0744 24.8569 22.9269 24.8569C23.7794 24.8569 24.5969 25.1956 25.1997 25.7984C25.8025 26.4012 26.1412 27.2187 26.1412 28.0712C26.1412 28.9237 25.8025 29.7413 25.1997 30.3441C24.5969 30.9469 23.7794 31.2855 22.9269 31.2855C22.0744 31.2855 21.2568 30.9469 20.6541 30.3441C20.0513 29.7413 19.7126 28.9237 19.7126 28.0712ZM22.9269 26.7855C22.5859 26.7855 22.2589 26.921 22.0178 27.1621C21.7766 27.4032 21.6412 27.7302 21.6412 28.0712C21.6412 28.4122 21.7766 28.7392 22.0178 28.9804C22.2589 29.2215 22.5859 29.3569 22.9269 29.3569C23.2679 29.3569 23.5949 29.2215 23.836 28.9804C24.0772 28.7392 24.2126 28.4122 24.2126 28.0712C24.2126 27.7302 24.0772 27.4032 23.836 27.1621C23.5949 26.921 23.2679 26.7855 22.9269 26.7855ZM22.9269 33.8569C22.0744 33.8569 21.2568 34.1956 20.6541 34.7984C20.0513 35.4012 19.7126 36.2187 19.7126 37.0712C19.7126 37.9237 20.0513 38.7413 20.6541 39.3441C21.2568 39.9469 22.0744 40.2855 22.9269 40.2855C23.7794 40.2855 24.5969 39.9469 25.1997 39.3441C25.8025 38.7413 26.1412 37.9237 26.1412 37.0712C26.1412 36.2187 25.8025 35.4012 25.1997 34.7984C24.5969 34.1956 23.7794 33.8569 22.9269 33.8569ZM21.6412 37.0712C21.6412 36.7302 21.7766 36.4032 22.0178 36.1621C22.2589 35.921 22.5859 35.7855 22.9269 35.7855C23.2679 35.7855 23.5949 35.921 23.836 36.1621C24.0772 36.4032 24.2126 36.7302 24.2126 37.0712C24.2126 37.4122 24.0772 37.7392 23.836 37.9804C23.5949 38.2215 23.2679 38.3569 22.9269 38.3569C22.5859 38.3569 22.2589 38.2215 22.0178 37.9804C21.7766 37.7392 21.6412 37.4122 21.6412 37.0712ZM28.7126 27.7498C28.7126 27.494 28.8142 27.2488 28.995 27.0679C29.1759 26.8871 29.4212 26.7855 29.6769 26.7855H39.3198C39.5755 26.7855 39.8208 26.8871 40.0016 27.0679C40.1824 27.2488 40.284 27.494 40.284 27.7498C40.284 28.0055 40.1824 28.2508 40.0016 28.4316C39.8208 28.6125 39.5755 28.7141 39.3198 28.7141H29.6769C29.4212 28.7141 29.1759 28.6125 28.995 28.4316C28.8142 28.2508 28.7126 28.0055 28.7126 27.7498ZM29.6769 35.7855C29.4212 35.7855 29.1759 35.8871 28.995 36.0679C28.8142 36.2488 28.7126 36.494 28.7126 36.7498C28.7126 37.0055 28.8142 37.2508 28.995 37.4316C29.1759 37.6125 29.4212 37.7141 29.6769 37.7141H39.3198C39.5755 37.7141 39.8208 37.6125 40.0016 37.4316C40.1824 37.2508 40.284 37.0055 40.284 36.7498C40.284 36.494 40.1824 36.2488 40.0016 36.0679C39.8208 35.8871 39.5755 35.7855 39.3198 35.7855H29.6769ZM19.7126 21.3212C19.7126 21.0655 19.8142 20.8202 19.995 20.6394C20.1759 20.4585 20.4212 20.3569 20.6769 20.3569H39.3198C39.5755 20.3569 39.8208 20.4585 40.0016 20.6394C40.1824 20.8202 40.284 21.0655 40.284 21.3212C40.284 21.577 40.1824 21.8222 40.0016 22.0031C39.8208 22.1839 39.5755 22.2855 39.3198 22.2855H20.6769C20.4212 22.2855 20.1759 22.1839 19.995 22.0031C19.8142 21.8222 19.7126 21.577 19.7126 21.3212ZM20.6769 15.8569C19.3982 15.8569 18.1718 16.3649 17.2676 17.2691C16.3634 18.1733 15.8555 19.3996 15.8555 20.6784V39.3212C15.8555 40.5999 16.3634 41.8263 17.2676 42.7305C18.1718 43.6347 19.3982 44.1426 20.6769 44.1426H39.3198C40.5985 44.1426 41.8248 43.6347 42.729 42.7305C43.6332 41.8263 44.1412 40.5999 44.1412 39.3212V20.6784C44.1412 19.3996 43.6332 18.1733 42.729 17.2691C41.8248 16.3649 40.5985 15.8569 39.3198 15.8569H20.6769ZM17.784 20.6784C17.784 19.9111 18.0888 19.1753 18.6313 18.6328C19.1739 18.0903 19.9097 17.7855 20.6769 17.7855H39.3198C40.087 17.7855 40.8228 18.0903 41.3653 18.6328C41.9078 19.1753 42.2126 19.9111 42.2126 20.6784V39.3212C42.2126 40.0885 41.9078 40.8243 41.3653 41.3668C40.8228 41.9093 40.087 42.2141 39.3198 42.2141H20.6769C19.9097 42.2141 19.1739 41.9093 18.6313 41.3668C18.0888 40.8243 17.784 40.0885 17.784 39.3212V20.6784Z" fill="white"/>
</svg>
