<svg width="108" height="60" viewBox="0 0 108 60" fill="none" xmlns="http://www.w3.org/2000/svg">
<g clip-path="url(#clip0_4595_122)">
<path d="M107.133 0.62793H0.628906V43.3443H107.133V0.62793Z" stroke="white" stroke-width="1.20314"/>
<path d="M90.5099 32.1074C84.2614 32.1074 78.9336 26.7468 78.9336 20.3996C78.9336 14.0523 84.2614 8.72461 90.5099 8.72461C93.6344 8.72461 96.5287 10.0401 98.6332 12.1778L96.8902 13.9537C95.2461 12.2107 92.9768 11.0925 90.5099 11.0925C85.6429 11.0925 81.5319 15.3678 81.5319 20.3996C81.5319 25.4642 85.6429 29.7395 90.5099 29.7395C92.9768 29.7395 95.2461 28.6214 96.8902 26.8783L98.6332 28.6542C96.5287 30.759 93.6344 32.1074 90.5099 32.1074Z" fill="white"/>
<path d="M49.7461 31.7136V9.12012H52.3114L66.3212 27.5041V9.12012H68.8865V31.7136H66.3212L52.3114 13.3297V31.7136H49.7461Z" fill="white"/>
<path d="M36.25 36.2509V7.68945H38.7609V36.2509H36.25Z" fill="white"/>
<path d="M18.6156 32.0752C14.8993 32.0752 11.9723 30.7268 9.70312 28.4905L11.3146 26.4843C13.222 28.3918 15.5571 29.7402 18.7142 29.7402C22.2003 29.7402 23.9762 27.8328 23.9762 25.7937C23.9762 23.393 21.8385 22.4392 17.8921 21.5184C13.3536 20.466 10.4924 19.0519 10.4924 15.1383C10.4924 11.5207 13.7154 8.69238 18.0565 8.69238C21.411 8.69238 23.9104 10.0079 25.9823 11.9153L24.4037 13.9214C22.5292 12.1126 20.2928 11.0274 17.925 11.0274C15.1295 11.0274 13.0905 12.8691 13.0905 14.941C13.0905 17.2759 15.3269 18.0982 19.1747 19.019C23.4829 20.0385 26.5743 21.5842 26.5743 25.5635C26.5743 29.1483 23.8775 32.0752 18.6156 32.0752Z" fill="white"/>
<path d="M1.51562 58.5815V50.8571H4.65268C6.24931 50.8571 7.49738 51.8803 7.49738 53.3305C7.49738 54.7811 6.24931 55.8043 4.65268 55.8043H2.39265V58.5815H1.51562ZM2.39265 54.9726H4.49527C5.75461 54.9726 6.6091 54.3652 6.6091 53.3305C6.6091 52.2963 5.75461 51.6891 4.49527 51.6891H2.39265V54.9726ZM21.671 58.5815L20.8952 56.8275H16.5887L15.8129 58.5815H14.8571L18.2641 50.8571H19.2198L22.6267 58.5815H21.671ZM16.9485 55.9957H20.5353L18.7476 51.9365L16.9485 55.9957ZM36.4891 53.3305C36.4891 54.5452 35.6121 55.4669 34.3865 55.7258L36.388 58.5815H35.3872L33.4308 55.8043H31.3844V58.5815H30.5074V50.8571H33.6445C35.2411 50.8571 36.4891 51.8803 36.4891 53.3305ZM31.3844 51.6891V54.9726H33.487C34.7463 54.9726 35.6009 54.3652 35.6009 53.3305C35.6009 52.2963 34.7463 51.6891 33.487 51.6891H31.3844ZM46.6693 58.5815V51.6891H44.072V50.8571H50.1437V51.6891H47.5463V58.5815H46.6693ZM58.3393 58.5815V50.8571H59.216L64.0061 57.1424V50.8571H64.8833V58.5815H64.0061L59.216 52.2963V58.5815H58.3393ZM79.0003 51.6891H74.3452V54.2303H78.5395V55.0625H74.3452V57.7497H79.0003V58.5815H73.457V50.8571H79.0003V51.6891ZM93.122 53.3305C93.122 54.5452 92.2453 55.4669 91.0197 55.7258L93.0211 58.5815H92.0204L90.064 55.8043H88.0176V58.5815H87.1403V50.8571H90.2774C91.8739 50.8571 93.122 51.8803 93.122 53.3305ZM88.0176 51.6891V54.9726H90.1199C91.3791 54.9726 92.2338 54.3652 92.2338 53.3305C92.2338 52.2963 91.3791 51.6891 90.1199 51.6891H88.0176ZM103.763 58.7054C102.493 58.7054 101.492 58.2446 100.716 57.4798L101.267 56.794C101.919 57.4458 102.717 57.9072 103.797 57.9072C104.989 57.9072 105.596 57.2549 105.596 56.5576C105.596 55.7368 104.865 55.4109 103.516 55.096C101.964 54.7361 100.986 54.2528 100.986 52.9147C100.986 51.6779 102.088 50.7109 103.572 50.7109C104.719 50.7109 105.573 51.1607 106.282 51.8129L105.742 52.4988C105.101 51.8803 104.337 51.5092 103.527 51.5092C102.571 51.5092 101.874 52.1389 101.874 52.8472C101.874 53.6454 102.639 53.9269 103.954 54.2418C105.428 54.5902 106.484 55.1185 106.484 56.4791C106.484 57.7047 105.562 58.7054 103.763 58.7054Z" fill="white"/>
</g>
<defs>
<clipPath id="clip0_4595_122">
<rect width="107.759" height="60" fill="white"/>
</clipPath>
</defs>
</svg>
